<?xml version="1.0" standalone="no"?>
<!DOCTYPE svg PUBLIC "-//W3C//DTD SVG 20010904//EN"
 "http://www.w3.org/TR/2001/REC-SVG-20010904/DTD/svg10.dtd">
<svg version="1.0" xmlns="http://www.w3.org/2000/svg"
 width="1024.000000pt" height="1024.000000pt" viewBox="0 0 1024.000000 1024.000000"
 preserveAspectRatio="xMidYMid meet">

<g transform="translate(0.000000,1024.000000) scale(0.100000,-0.100000)"
fill="#000000" stroke="none">
<path d="M3614 7118 l-19 -23 23 19 c21 18 27 26 19 26 -2 0 -12 -10 -23 -22z"/>
<path d="M3555 7039 c-4 -6 -5 -12 -2 -15 2 -3 7 2 10 11 7 17 1 20 -8 4z"/>
<path d="M6686 7037 c3 -10 9 -15 12 -12 3 3 0 11 -7 18 -10 9 -11 8 -5 -6z"/>
<path d="M6711 6964 c0 -11 3 -14 6 -6 3 7 2 16 -1 19 -3 4 -6 -2 -5 -13z"/>
<path d="M3523 6895 c0 -22 2 -30 4 -17 2 12 2 30 0 40 -3 9 -5 -1 -4 -23z"/>
<path d="M6711 6835 c-2 -34 -40 -108 -74 -145 l-32 -35 37 34 c39 36 82 122
75 149 -4 14 -5 13 -6 -3z"/>
<path d="M3531 6824 c0 -11 3 -14 6 -6 3 7 2 16 -1 19 -3 4 -6 -2 -5 -13z"/>
<path d="M3550 6771 c0 -6 4 -13 10 -16 6 -3 7 1 4 9 -7 18 -14 21 -14 7z"/>
<path d="M3590 6713 c21 -33 130 -116 130 -100 0 2 -19 17 -42 32 -24 14 -58
43 -77 63 -32 36 -33 36 -11 5z"/>
<path d="M6512 6611 c-105 -61 -120 -76 -25 -25 66 35 126 74 113 73 -3 0 -42
-22 -88 -48z"/>
<path d="M3735 6603 c9 -9 128 -78 580 -338 88 -51 259 -149 379 -219 238
-138 261 -150 321 -165 61 -17 183 -13 240 7 28 10 190 98 360 196 171 98 416
240 545 314 129 74 240 139 245 145 14 14 36 26 -407 -227 -219 -125 -402
-225 -408 -221 -5 3 -18 1 -27 -5 -16 -9 -15 -10 5 -5 31 9 27 -2 -8 -20 -38
-20 -46 -19 -29 3 12 15 12 16 -2 4 -9 -7 -25 -9 -34 -5 -14 5 -17 3 -12 -10
6 -15 -3 -22 -25 -18 -5 0 -8 -4 -8 -10 0 -6 9 -8 23 -4 43 13 -149 -99 -208
-120 -75 -28 -185 -32 -258 -11 -64 19 -165 76 -1047 586 -201 116 -240 138
-225 123z m1779 -564 c-8 -14 -21 -11 -21 5 0 8 6 12 14 9 7 -3 10 -9 7 -14z"/>
<path d="M3564 6304 c-18 -14 -18 -15 4 -4 12 6 22 13 22 15 0 8 -5 6 -26 -11z"/>
<path d="M3608 6313 c6 -2 18 -2 25 0 6 3 1 5 -13 5 -14 0 -19 -2 -12 -5z"/>
<path d="M6553 6284 c-35 -19 -63 -37 -63 -40 0 -3 25 9 56 27 31 18 71 35 88
40 27 6 28 7 6 8 -14 0 -53 -15 -87 -35z"/>
<path d="M3651 6306 c10 -9 69 -36 69 -32 0 6 -55 36 -66 36 -4 0 -5 -2 -3 -4z"/>
<path d="M6690 6285 c21 -23 23 -31 21 -156 -1 -106 -5 -139 -20 -173 -18 -38
-74 -106 -88 -106 -4 0 7 15 24 33 62 64 73 102 73 243 0 127 -7 166 -11 66
-2 -29 -9 -61 -17 -70 -7 -9 -11 -12 -8 -5 12 22 -14 24 -36 3 -19 -18 -24
-19 -26 -6 -2 9 -10 16 -19 16 -11 0 -14 -7 -9 -27 5 -21 4 -24 -4 -12 -9 15
-14 15 -47 4 -21 -8 -48 -11 -60 -8 -13 3 -23 1 -23 -4 0 -5 -10 -9 -22 -7
-13 1 -27 3 -31 3 -5 1 -5 6 -2 11 12 20 -13 9 -29 -12 -9 -13 -14 -17 -11
-10 5 9 -1 11 -20 8 -22 -4 -25 -3 -15 9 15 18 4 36 -18 29 -11 -4 -8 2 8 16
l25 22 -35 -20 c-458 -257 -819 -466 -815 -473 3 -4 0 -11 -6 -15 -8 -4 -9 -3
-5 4 4 7 5 12 2 12 -11 0 -146 -77 -142 -81 2 -2 -5 -5 -17 -6 -12 -1 -61 -7
-108 -14 -106 -15 -196 -2 -289 42 -34 16 -67 26 -72 22 -7 -3 -8 -1 -4 5 4 6
-6 18 -23 27 -36 18 -45 19 -35 3 4 -7 3 -8 -5 -4 -6 4 -9 11 -6 16 8 12 -53
43 -67 34 -6 -4 -8 -3 -5 3 4 7 -139 95 -356 219 -199 114 -377 216 -394 227
-18 10 -33 16 -33 13 0 -3 25 -20 55 -37 31 -18 52 -35 48 -41 -3 -7 -1 -8 6
-4 11 7 166 -72 158 -81 -3 -2 -20 3 -37 12 -18 9 -29 12 -26 7 10 -16 -8 -22
-74 -28 -43 -4 -65 -2 -77 7 -15 12 -16 12 -10 -6 6 -18 6 -18 -6 -3 -10 13
-17 14 -32 5 -18 -9 -19 -9 -6 6 9 12 10 17 2 17 -6 0 -14 -7 -17 -15 -6 -14
-8 -13 -19 1 -11 16 -13 16 -22 0 -8 -15 -11 -16 -22 -2 -12 14 -16 14 -45 0
-31 -16 -31 -16 -11 3 12 11 27 23 35 26 9 3 5 6 -10 6 -15 1 -32 -7 -40 -19
-10 -14 -16 -16 -22 -7 -6 9 -8 9 -8 0 0 -7 -5 -13 -11 -13 -5 0 -7 6 -3 13 5
8 2 8 -9 -2 -12 -9 -17 -10 -17 -2 0 6 7 14 15 17 8 4 12 10 9 15 -3 5 -14 -1
-24 -13 -11 -13 -19 -18 -20 -11 0 6 -9 9 -22 5 -14 -3 -19 -2 -14 6 4 7 2 12
-3 12 -6 0 -11 -7 -11 -15 0 -18 -16 -20 -26 -3 -4 7 -3 8 4 4 7 -4 12 -1 12
8 0 17 -20 17 -33 1 -5 -6 -7 2 -4 18 2 15 0 30 -5 33 -4 3 -5 11 -2 17 4 7 1
6 -7 -2 -10 -10 -11 -15 -2 -18 9 -3 9 -10 1 -29 -9 -20 -8 -36 7 -79 26 -77
64 -117 171 -181 99 -59 130 -85 44 -37 -144 81 -200 135 -231 225 -10 29 -18
44 -19 33 0 -35 47 -122 88 -162 49 -47 288 -186 304 -177 6 4 8 3 5 -3 -8
-12 178 -127 205 -127 9 0 15 -3 12 -7 -6 -11 105 -70 118 -63 6 4 8 3 5 -3
-7 -11 578 -359 688 -410 53 -24 72 -27 160 -27 81 0 109 4 147 21 101 46 608
345 601 356 -3 6 -1 7 6 3 13 -9 143 63 135 75 -2 4 1 11 7 15 8 4 9 3 5 -4
-11 -18 1 -15 50 14 24 14 41 31 37 36 -3 7 -1 8 5 4 16 -10 74 22 66 36 -4 7
-3 8 4 4 15 -9 54 12 47 24 -4 6 1 7 11 3 13 -5 15 -3 9 7 -5 9 -4 11 3 6 14
-8 294 153 287 165 -3 4 0 11 6 15 8 5 9 3 4 -6 -5 -8 -3 -11 6 -8 8 3 13 10
12 16 -2 6 4 9 11 6 22 -9 93 62 122 123 25 50 27 65 28 181 1 108 -2 131 -18
155 -10 15 -23 27 -29 27 -6 0 0 -11 13 -25z m-413 -195 c1 -11 -2 -20 -8 -20
-5 0 -9 4 -9 10 0 5 -6 7 -13 4 -8 -3 -14 -11 -14 -18 0 -10 12 -12 45 -8 33
4 43 2 38 -7 -4 -6 -12 -9 -17 -6 -5 4 -9 0 -10 -7 0 -10 -2 -10 -6 0 -2 6
-12 12 -20 12 -9 0 -13 -6 -10 -14 5 -12 -10 -15 -33 -6 -3 1 -8 2 -12 1 -15
-2 -8 18 10 28 9 6 13 10 7 10 -17 0 -45 -26 -37 -34 4 -5 1 -5 -6 -1 -7 5
-62 -20 -135 -62 -172 -97 -263 -147 -255 -137 8 9 470 275 478 275 3 0 6 -9
7 -20z m33 10 c0 -5 -5 -10 -11 -10 -5 0 -7 5 -4 10 3 6 8 10 11 10 2 0 4 -4
4 -10z m-2166 -96 c9 -3 16 -14 15 -23 0 -12 -2 -12 -6 -2 -5 11 -7 11 -14 0
-7 -12 -9 -11 -9 1 0 12 -2 13 -9 1 -5 -7 -14 -10 -20 -6 -9 5 -7 11 6 21 22
16 18 15 37 8z m213 -100 c92 -53 173 -101 178 -106 13 -14 -18 2 -160 84 -66
38 -125 66 -133 63 -7 -2 -10 0 -7 5 3 6 3 10 -2 10 -10 1 -60 39 -51 40 4 0
83 -43 175 -96z m1423 -79 c0 -2 -13 -11 -30 -20 -38 -19 -40 -11 -2 9 31 17
32 18 32 11z m-1125 -98 c6 -6 -12 2 -40 18 -27 15 -54 32 -60 38 -5 6 13 -2
40 -18 28 -15 55 -32 60 -38z m1055 58 c0 -2 -18 -14 -40 -25 -22 -11 -40 -18
-40 -15 0 2 17 13 38 24 42 23 42 23 42 16z m790 0 c0 -2 -10 -9 -22 -15 -22
-11 -22 -10 -4 4 21 17 26 19 26 11z m-64 -40 c-11 -8 -25 -15 -30 -15 -6 1 0
7 14 15 32 19 40 18 16 0z m-816 -10 c0 -2 -10 -9 -22 -15 -22 -11 -22 -10 -4
4 21 17 26 19 26 11z m-1720 -41 c0 -2 -13 2 -30 11 -16 9 -30 18 -30 21 0 2
14 -2 30 -11 17 -9 30 -18 30 -21z m1656 1 c-11 -8 -25 -15 -30 -15 -6 1 0 7
14 15 32 19 40 18 16 0z m-1591 -43 c-3 -3 -11 0 -18 7 -9 10 -8 11 6 5 10 -3
15 -9 12 -12z m1485 -17 c0 -2 -18 -14 -40 -25 -22 -11 -40 -18 -40 -15 0 2
17 13 38 24 42 23 42 23 42 16z m-1400 -31 c0 -2 -9 0 -20 6 -11 6 -20 13 -20
16 0 2 9 0 20 -6 11 -6 20 -13 20 -16z m1073 -71 c-7 -2 -19 -2 -25 0 -7 3 -2
5 12 5 14 0 19 -2 13 -5z"/>
<path d="M3735 6263 c6 -6 46 -30 90 -53 44 -24 76 -38 70 -33 -5 6 -46 30
-90 53 -44 24 -75 38 -70 33z"/>
<path d="M6408 6202 c-37 -21 -71 -42 -75 -47 -9 -10 127 63 142 76 17 16 1 9
-67 -29z"/>
<path d="M3524 6135 c0 -55 1 -76 3 -47 2 29 2 74 0 100 -2 26 -3 2 -3 -53z"/>
<path d="M3551 6144 c0 -11 3 -14 6 -6 3 7 2 16 -1 19 -3 4 -6 -2 -5 -13z"/>
<path d="M5615 6120 c-3 -6 1 -7 9 -4 18 7 21 14 7 14 -6 0 -13 -4 -16 -10z"/>
<path d="M4667 6089 c7 -7 15 -10 18 -7 3 3 -2 9 -12 12 -14 6 -15 5 -6 -5z"/>
<path d="M4051 6056 c2 -2 15 -9 29 -15 24 -11 24 -11 6 3 -16 13 -49 24 -35
12z"/>
<path d="M4003 6021 c0 -11 5 -18 9 -15 4 3 5 11 1 19 -7 21 -12 19 -10 -4z"/>
<path d="M4785 6031 c-3 -5 -2 -12 3 -15 5 -3 9 1 9 9 0 17 -3 19 -12 6z"/>
<path d="M5365 6010 c-3 -5 -15 -10 -26 -10 -10 0 -19 -5 -19 -11 0 -8 -4 -8
-12 -1 -20 15 -103 -2 -92 -19 3 -5 -2 -6 -10 -3 -8 3 -12 13 -10 22 5 16 5
16 -8 0 -13 -15 -15 -15 -27 4 -11 17 -15 18 -22 7 -7 -11 -9 -11 -9 -1 0 8
-11 3 -27 -12 -25 -23 -28 -24 -39 -8 -11 14 -13 14 -14 2 0 -13 -1 -13 -11 0
-8 12 -10 9 -6 -12 3 -18 0 -28 -9 -28 -7 0 -11 8 -9 18 4 24 -6 37 -16 21 -8
-12 -11 -11 -19 1 -5 8 -10 10 -10 5 0 -6 5 -16 10 -21 7 -7 6 -11 -5 -11 -8
0 -15 5 -15 11 0 6 -5 4 -10 -4 -8 -12 -10 -11 -10 8 0 12 -4 22 -10 22 -5 0
-10 -5 -10 -11 0 -5 -5 -7 -10 -4 -6 4 -7 12 -3 18 4 7 0 6 -10 -2 -13 -11
-20 -11 -32 -1 -8 6 -20 10 -27 8 -14 -5 4 -16 112 -70 61 -30 72 -32 172 -32
l107 -1 103 54 c114 59 131 71 99 68 -11 -1 -21 -5 -21 -9 0 -5 -9 -4 -19 2
-13 7 -22 7 -26 0z m-205 -29 c0 -5 -10 -11 -22 -14 -22 -6 -22 -6 -4 8 23 17
26 18 26 6z"/>
<path d="M5075 5990 c-3 -5 -1 -10 4 -10 6 0 11 5 11 10 0 6 -2 10 -4 10 -3 0
-8 -4 -11 -10z"/>
<path d="M6584 5517 c-142 -77 -243 -140 -237 -150 3 -6 1 -7 -6 -3 -10 6
-174 -83 -341 -185 -105 -64 -563 -327 -650 -374 l-95 -50 -125 0 c-139 1
-167 9 -298 83 -37 21 -269 154 -515 296 -246 141 -453 254 -459 250 -7 -5 -8
-3 -3 6 6 10 4 12 -9 7 -10 -4 -15 -3 -11 3 8 12 -52 43 -67 34 -7 -4 -8 -3
-4 4 3 6 -2 16 -13 21 -29 16 -38 13 -15 -5 18 -14 18 -15 -4 -4 -12 6 -20 15
-17 20 8 14 -85 60 -121 60 -37 0 -71 -37 -60 -65 4 -10 2 -14 -5 -9 -8 5 -10
-28 -7 -112 3 -102 7 -127 29 -174 48 -103 60 -112 384 -300 83 -47 327 -191
543 -319 216 -128 418 -244 450 -258 47 -22 77 -27 170 -31 99 -4 120 -2 175
18 66 24 76 30 562 315 377 221 347 203 566 330 118 68 191 117 229 155 76 74
90 117 90 278 0 123 0 124 -29 153 -35 35 -53 36 -107 6z"/>
<path d="M7870 3455 l0 -635 110 0 110 0 0 138 0 138 51 49 c41 41 52 47 59
35 5 -8 66 -91 137 -185 l128 -170 128 -3 c72 -1 127 1 127 7 0 5 -87 124
-194 264 l-193 255 164 183 164 184 -131 3 c-128 3 -132 2 -150 -21 -43 -54
-270 -316 -280 -322 -7 -4 -10 109 -10 354 l0 361 -110 0 -110 0 0 -635z"/>
<path d="M5600 3959 c-47 -17 -93 -33 -102 -36 -16 -5 -18 -19 -18 -104 l0
-99 -80 0 -80 0 0 -90 0 -90 79 0 80 0 3 -277 c3 -264 4 -280 25 -319 47 -88
136 -134 258 -134 64 0 147 20 178 42 17 13 16 18 -11 93 -20 57 -32 79 -42
76 -43 -11 -120 -12 -139 -1 -44 23 -51 63 -51 300 l0 220 120 0 120 0 0 90 0
90 -120 0 -120 0 0 135 c0 74 -3 135 -7 134 -5 0 -46 -14 -93 -30z"/>
<path d="M1886 3709 c-33 -11 -78 -33 -102 -49 -50 -35 -119 -112 -144 -161
-29 -55 -50 -151 -50 -222 0 -281 179 -467 450 -467 223 0 401 139 445 347 56
265 -68 498 -299 559 -78 21 -229 17 -300 -7z m249 -188 c95 -43 139 -123 139
-251 -1 -96 -14 -137 -65 -195 -44 -50 -100 -75 -169 -75 -148 0 -240 120
-227 295 8 115 57 194 142 231 44 19 133 17 180 -5z"/>
<path d="M2972 3711 c-30 -10 -71 -35 -93 -57 l-39 -38 0 52 0 52 -110 0 -110
0 0 -450 0 -450 110 0 110 0 0 260 c0 289 7 345 51 395 38 43 85 58 165 53 72
-4 107 -24 139 -79 19 -32 20 -55 23 -331 l3 -298 115 0 114 0 0 282 c0 288
-8 378 -40 454 -26 59 -75 111 -134 142 -69 35 -223 42 -304 13z"/>
<path d="M3879 3717 c-132 -37 -236 -145 -281 -290 -17 -58 -20 -86 -15 -180
6 -148 37 -225 123 -310 156 -154 458 -171 603 -34 36 34 91 105 91 118 0 4
-39 23 -86 43 l-86 36 -45 -40 c-85 -74 -205 -81 -297 -17 -28 20 -81 117 -74
138 2 6 108 11 303 12 l300 2 3 69 c9 206 -66 355 -216 428 -60 30 -76 33
-172 35 -63 2 -123 -2 -151 -10z m209 -182 c64 -27 102 -73 117 -142 l7 -33
-205 0 -205 0 10 39 c12 48 70 119 112 137 42 18 119 17 164 -1z"/>
<path d="M4744 3712 c-84 -30 -151 -88 -178 -154 -23 -54 -21 -149 5 -203 40
-84 97 -118 289 -170 85 -23 143 -44 157 -57 60 -56 -9 -138 -116 -138 -57 0
-138 28 -175 60 -18 17 -36 30 -40 30 -14 0 -146 -91 -146 -101 0 -5 24 -34
53 -63 80 -80 140 -100 297 -101 116 0 129 2 185 28 87 41 120 70 151 133 32
65 37 155 12 214 -39 91 -106 131 -299 179 -143 35 -174 53 -174 101 0 45 38
72 107 78 76 6 132 -12 178 -58 l39 -39 76 33 c42 18 80 37 86 43 13 13 -40
94 -83 126 -72 56 -124 71 -253 74 -95 2 -130 -1 -171 -15z"/>
<path d="M6267 3709 c-32 -11 -76 -31 -97 -45 -45 -30 -98 -101 -84 -113 5 -5
38 -29 73 -55 l64 -47 31 30 c43 42 95 61 163 61 112 -1 173 -51 173 -144 l0
-35 -86 4 c-285 15 -464 -92 -464 -278 0 -81 17 -130 62 -181 52 -60 114 -87
214 -94 106 -6 175 14 237 69 l47 41 0 -51 0 -51 105 0 105 0 0 308 c0 322 -5
364 -48 447 -21 42 -57 79 -104 108 -79 49 -285 63 -391 26z m323 -533 c0
-115 -78 -185 -203 -186 -54 0 -62 3 -93 34 -73 73 -23 159 109 186 23 4 75 8
115 9 l72 1 0 -44z"/>
<path d="M7257 3720 c-134 -34 -246 -141 -293 -281 -19 -56 -24 -92 -24 -169
0 -202 74 -330 240 -415 139 -71 364 -54 473 36 41 34 97 110 97 132 0 9 -33
27 -85 47 l-84 33 -45 -40 c-54 -47 -118 -68 -181 -60 -118 17 -183 96 -192
237 -7 95 9 165 48 218 75 103 241 109 321 13 15 -17 30 -31 34 -31 7 0 175
70 183 76 2 2 -8 23 -22 47 -34 57 -87 104 -157 136 -47 22 -71 26 -165 28
-60 1 -127 -2 -148 -7z"/>
</g>
</svg>
